<?xml version="1.0" encoding="UTF-8" standalone="no"?><svg width="20" height="16" viewBox="0 0 20 16" fill="none" xmlns="http://www.w3.org/2000/svg">
<path d="M7.96969 8.17656C8.165 8.37187 8.48156 8.37187 8.67688 8.17656L9.03031 7.82312C9.22563 7.62781 9.22563 7.31125 9.03031 7.11594L7.91406 6L9.03 4.88375C9.22531 4.68844 9.22531 4.37187 9.03 4.17656L8.67656 3.82312C8.48125 3.62781 8.16469 3.62781 7.96938 3.82312L6.14625 5.64625C5.95094 5.84156 5.95094 6.15812 6.14625 6.35344L7.96969 8.17656V8.17656ZM10.97 7.82344L11.3234 8.17688C11.5188 8.37219 11.8353 8.37219 12.0306 8.17688L13.8538 6.35375C14.0491 6.15844 14.0491 5.84188 13.8538 5.64656L12.0306 3.82344C11.8353 3.62812 11.5188 3.62812 11.3234 3.82344L10.97 4.17688C10.7747 4.37219 10.7747 4.68875 10.97 4.88406L12.0859 6L10.97 7.11625C10.7747 7.31156 10.7747 7.62813 10.97 7.82344V7.82344ZM19.5 13H11.9231C11.9 13.6191 11.4634 14 10.9 14H9C8.41594 14 7.96812 13.4541 7.97594 13H0.5C0.225 13 0 13.225 0 13.5V14C0 15.1 0.9 16 2 16H18C19.1 16 20 15.1 20 14V13.5C20 13.225 19.775 13 19.5 13ZM18 1.5C18 0.675 17.325 0 16.5 0H3.5C2.675 0 2 0.675 2 1.5V12H18V1.5ZM16 10H4V2H16V10Z" fill="white"/>
</svg>
