<?xml version="1.0" encoding="UTF-8" standalone="no"?><svg width="16" height="16" viewBox="0 0 16 16" fill="none" xmlns="http://www.w3.org/2000/svg">
<path d="M8.00008 1C4.93008 1 1.66675 1.818 1.66675 3.33333V12.6667C1.66675 14.182 4.93008 15 8.00008 15C11.0701 15 14.3334 14.182 14.3334 12.6667V3.33333C14.3334 1.818 11.0701 1 8.00008 1ZM8.00008 11.6667C4.48875 11.6667 2.33341 10.696 2.33341 10V9.08867C3.44408 9.90267 5.77341 10.3333 8.00008 10.3333C10.2267 10.3333 12.5561 9.90267 13.6667 9.08867V10C13.6667 10.696 11.5114 11.6667 8.00008 11.6667ZM8.00008 9C4.48875 9 2.33341 8.02933 2.33341 7.33333V6.42133C3.44408 7.236 5.77341 7.66667 8.00008 7.66667C10.2267 7.66667 12.5561 7.236 13.6667 6.42133V7.33333C13.6667 8.02933 11.5114 9 8.00008 9ZM13.6667 12.6667C13.6667 13.3627 11.5114 14.3333 8.00008 14.3333C4.48875 14.3333 2.33341 13.3627 2.33341 12.6667V11.7553C3.44408 12.5693 5.77341 13 8.00008 13C10.2267 13 12.5561 12.5693 13.6667 11.7553V12.6667ZM8.00008 6.33333C4.48875 6.33333 2.33341 5.36267 2.33341 4.66667V3.33333C2.33341 2.63733 4.48875 1.66667 8.00008 1.66667C11.5114 1.66667 13.6667 2.63733 13.6667 3.33333V4.66667C13.6667 5.36267 11.5114 6.33333 8.00008 6.33333Z" fill="white"/>
</svg>
