<svg width="590" height="463" viewBox="0 0 590 463" fill="none" xmlns="http://www.w3.org/2000/svg">
<g clip-path="url(#clip0_3_2)">
<mask id="mask0_3_2" style="mask-type:luminance" maskUnits="userSpaceOnUse" x="0" y="0" width="590" height="463">
<path d="M590 0H0V463H590V0Z" fill="white"/>
</mask>
<g mask="url(#mask0_3_2)">
<mask id="mask1_3_2" style="mask-type:luminance" maskUnits="userSpaceOnUse" x="-113" y="-8" width="838" height="471">
<path d="M-112.505 -7.29741H724.505V462.297H-112.505V-7.29741Z" fill="white"/>
</mask>
<g mask="url(#mask1_3_2)">
<path d="M152.553 129.086C156.063 129.086 158.912 131.935 158.912 135.445C158.912 138.954 156.063 141.804 152.553 141.804C149.043 141.804 146.194 138.954 146.194 135.445C146.194 131.935 149.043 129.086 152.553 129.086Z" fill="#202BD8"/>
<path d="M226.139 376.205C173.528 376.205 127.828 376.205 127.828 376.205C90.9373 376.205 60.985 357.111 60.985 333.594V177.932C60.985 154.414 90.9373 135.32 127.828 135.32H381.558C418.448 135.32 448.4 154.414 448.4 177.932V333.594C448.4 357.111 418.448 376.205 381.558 376.205C381.558 376.205 297.493 376.205 226.139 376.205Z" stroke="#0042CD" stroke-width="3.81208" stroke-dasharray="6.53 6.53"/>
<path d="M269.724 364.021C276.053 364.021 281.192 369.16 281.192 375.489C281.192 381.818 276.053 386.957 269.724 386.957C263.394 386.957 258.255 381.818 258.255 375.489C258.255 369.16 263.394 364.021 269.724 364.021Z" fill="#0042CD"/>
<path d="M370.717 92.3758C394.418 143.811 371.9 204.816 320.464 228.517C269.029 252.218 208.024 229.7 184.323 178.265C160.622 126.829 183.14 65.8245 234.575 42.1235C286.011 18.4224 347.016 40.9405 370.717 92.3758Z" stroke="#202BD8" stroke-width="3.04367" stroke-dasharray="5.22 5.22"/>
<path d="M370.717 92.3758C394.418 143.811 371.9 204.816 320.464 228.517C269.029 252.218 208.024 229.7 184.323 178.265C160.622 126.829 183.14 65.8245 234.575 42.1235C286.011 18.4224 347.016 40.9405 370.717 92.3758Z" fill="#F5F6FD"/>
<path d="M107.588 221.744H28.3068C23.0748 221.744 18.7936 217.462 18.7936 212.23V100.872C18.7936 95.6395 23.0748 91.358 28.3068 91.358H107.588C112.82 91.358 117.102 95.6395 117.102 100.872V212.23C117.102 217.462 112.82 221.744 107.588 221.744Z" fill="#FDBC29"/>
<path d="M23.1726 63.6314C16.8692 63.6314 11.7119 68.7887 11.7119 75.0917V241.4C11.7119 247.704 16.8692 252.861 23.1726 252.861H98.5591C104.863 252.861 110.019 247.704 110.019 241.4V75.0917C110.019 68.7887 104.863 63.6314 98.5591 63.6314H23.1726Z" fill="#0042CD"/>
<path d="M37.6843 221.875C37.6843 225.144 35.034 227.794 31.7652 227.794C28.4969 227.794 25.8472 225.144 25.8472 221.875C25.8472 218.607 28.4969 215.958 31.7652 215.958C35.034 215.958 37.6843 218.607 37.6843 221.875ZM37.6843 221.875C37.6843 225.144 35.034 227.794 31.7652 227.794C28.4969 227.794 25.8472 225.144 25.8472 221.875C25.8472 218.607 28.4969 215.958 31.7652 215.958C35.034 215.958 37.6843 218.607 37.6843 221.875Z" fill="white"/>
<path d="M37.6843 221.875C37.6843 225.144 35.034 227.794 31.7652 227.794C28.4969 227.794 25.8472 225.144 25.8472 221.875C25.8472 218.607 28.4969 215.958 31.7652 215.958C35.034 215.958 37.6843 218.607 37.6843 221.875Z" stroke="#E2E2E2" stroke-width="1.73339" stroke-miterlimit="10"/>
<path d="M66.9135 221.875C66.9135 225.215 64.2054 227.923 60.8653 227.923C57.5257 227.923 54.8182 225.215 54.8182 221.875C54.8182 218.536 57.5257 215.829 60.8653 215.829C64.2054 215.829 66.9135 218.536 66.9135 221.875ZM66.9135 221.875C66.9135 225.215 64.2054 227.923 60.8653 227.923C57.5257 227.923 54.8182 225.215 54.8182 221.875C54.8182 218.536 57.5257 215.829 60.8653 215.829C64.2054 215.829 66.9135 218.536 66.9135 221.875Z" fill="white"/>
<path d="M66.9135 221.875C66.9135 225.215 64.2054 227.923 60.8653 227.923C57.5257 227.923 54.8182 225.215 54.8182 221.875C54.8182 218.536 57.5257 215.829 60.8653 215.829C64.2054 215.829 66.9135 218.536 66.9135 221.875Z" stroke="#E2E2E2" stroke-width="1.7712" stroke-miterlimit="10"/>
<path d="M94.0465 221.875C94.0465 224.129 92.2193 225.956 89.9656 225.956C87.7123 225.956 85.8854 224.129 85.8854 221.875C85.8854 219.622 87.7123 217.796 89.9656 217.796C92.2193 217.796 94.0465 219.622 94.0465 221.875ZM94.0465 221.875C94.0465 224.129 92.2193 225.956 89.9656 225.956C87.7123 225.956 85.8854 224.129 85.8854 221.875C85.8854 219.622 87.7123 217.796 89.9656 217.796C92.2193 217.796 94.0465 219.622 94.0465 221.875Z" fill="white"/>
<path d="M94.0465 221.875C94.0465 224.129 92.2193 225.956 89.9656 225.956C87.7123 225.956 85.8854 224.129 85.8854 221.875C85.8854 219.622 87.7123 217.796 89.9656 217.796C92.2193 217.796 94.0465 219.622 94.0465 221.875Z" stroke="#E2E2E2" stroke-width="1.19509" stroke-miterlimit="10"/>
<path d="M62.7594 104.294H29.3733C27.9753 104.294 26.8313 102.29 26.8313 99.8411C26.8313 97.3918 27.9753 95.3886 29.3733 95.3886H62.7594C64.1576 95.3886 65.3013 97.3918 65.3013 99.8411C65.3013 102.29 64.1576 104.294 62.7594 104.294ZM29.3738 101.756C28.6861 101.756 28.0615 102.242 27.6024 103.025C28.0615 103.808 28.6861 104.294 29.3738 104.294H62.7594C63.4466 104.294 64.0717 103.808 64.5302 103.025C64.0717 102.242 63.4466 101.756 62.7594 101.756H29.3738Z" fill="white"/>
<path d="M29.3738 101.756C28.6861 101.756 28.0615 102.242 27.6024 103.025C28.0615 103.808 28.6861 104.294 29.3738 104.294H62.7594C63.4466 104.294 64.0717 103.808 64.5302 103.025C64.0717 102.242 63.4466 101.756 62.7594 101.756H29.3738Z" fill="#E2E2E2"/>
<path d="M95.8961 132.648H32.0208C29.3462 132.648 27.1575 130.645 27.1575 128.196C27.1575 125.747 29.3462 123.743 32.0208 123.743H95.8961C98.5712 123.743 100.759 125.747 100.759 128.196C100.759 130.645 98.5712 132.648 95.8961 132.648ZM32.0218 130.11C30.7061 130.11 29.5111 130.596 28.6328 131.38C29.5111 132.163 30.7061 132.649 32.0218 132.649L95.8961 132.648C97.2109 132.648 98.4069 132.163 99.2842 131.38C98.4069 130.596 97.2109 130.11 95.8961 130.11H32.0218Z" fill="white"/>
<path d="M32.0218 130.11C30.7061 130.11 29.511 130.596 28.6328 131.38C29.511 132.163 30.7061 132.649 32.0218 132.649H95.8961C97.2109 132.649 98.4069 132.163 99.2842 131.38C98.4069 130.596 97.2109 130.11 95.8961 130.11H32.0218Z" fill="#E2E2E2"/>
<path d="M76.8657 161.003H30.7332C28.8015 161.003 27.2207 159 27.2207 156.551C27.2207 154.101 28.8015 152.098 30.7332 152.098H76.8657C78.7977 152.098 80.3781 154.101 80.3781 156.551C80.3781 159 78.7977 161.003 76.8657 161.003ZM30.7338 158.465C29.7836 158.465 28.9205 158.951 28.2862 159.734C28.9205 160.518 29.7836 161.004 30.7338 161.004L76.8657 161.003C77.8153 161.003 78.679 160.518 79.3126 159.734C78.679 158.951 77.8153 158.465 76.8657 158.465H30.7338ZM30.7338 158.465C29.7836 158.465 28.9205 158.951 28.2862 159.734C28.9205 160.518 29.7836 161.004 30.7338 161.004L76.8657 161.003C77.8153 161.003 78.679 160.518 79.3126 159.734C78.679 158.951 77.8153 158.465 76.8657 158.465H30.7338Z" fill="white"/>
<path d="M30.7338 158.465C29.7836 158.465 28.9205 158.951 28.2862 159.734C28.9205 160.518 29.7836 161.004 30.7338 161.004H76.8657C77.8153 161.004 78.679 160.518 79.3126 159.734C78.679 158.951 77.8153 158.465 76.8657 158.465H30.7338ZM30.7338 158.465C29.7836 158.465 28.9205 158.951 28.2862 159.734C28.9205 160.518 29.7836 161.004 30.7338 161.004H76.8657C77.8153 161.004 78.679 160.518 79.3126 159.734C78.679 158.951 77.8153 158.465 76.8657 158.465H30.7338Z" fill="#E2E2E2"/>
<path d="M32.4071 188.319C31.144 188.319 29.9949 188.806 29.1513 189.588C29.9949 190.371 31.144 190.858 32.4071 190.858H93.7282C94.9867 190.858 96.1358 190.371 96.9794 189.588C96.1358 188.806 94.9867 188.319 93.7282 188.319H32.4071ZM32.4071 188.319C31.144 188.319 29.9949 188.806 29.1513 189.588C29.9949 190.371 31.144 190.858 32.4071 190.858H93.7282C94.9867 190.858 96.1358 190.371 96.9794 189.588C96.1358 188.806 94.9867 188.319 93.7282 188.319H32.4071ZM93.5914 190.88H32.2703C29.7026 190.88 27.6014 188.876 27.6014 186.427C27.6014 183.978 29.7026 181.975 32.2703 181.975H93.5914C96.1595 181.975 98.2602 183.978 98.2602 186.427C98.2602 188.876 96.1595 190.88 93.5914 190.88Z" fill="white"/>
<path d="M32.4062 188.321C31.1431 188.321 29.9958 188.807 29.1527 189.59C29.9958 190.373 31.1431 190.859 32.4062 190.859H93.7264C94.9885 190.859 96.1367 190.373 96.9789 189.59C96.1367 188.807 94.9885 188.321 93.7264 188.321H32.4062ZM32.4062 188.321C31.1431 188.321 29.9958 188.807 29.1527 189.59C29.9958 190.373 31.1431 190.859 32.4062 190.859H93.7264C94.9885 190.859 96.1367 190.373 96.9789 189.59C96.1367 188.807 94.9885 188.321 93.7264 188.321H32.4062Z" fill="#E2E2E2"/>
<path d="M244.559 181.001L255.743 187.177C256.889 187.81 258.332 187.394 258.965 186.248L261.018 182.53C262.79 179.321 266.432 177.768 270.038 178.429C272.136 178.814 274.246 179.049 276.353 179.138C280.023 179.293 283.241 181.611 284.259 185.141L285.436 189.218C285.799 190.476 287.113 191.202 288.371 190.839L300.644 187.298C301.902 186.935 302.627 185.621 302.265 184.363L301.088 180.285C300.07 176.756 301.559 173.08 304.582 170.994C306.317 169.796 307.978 168.473 309.55 167.03C312.248 164.55 316.159 163.924 319.367 165.696L323.083 167.748C324.229 168.381 325.671 167.964 326.305 166.818L332.48 155.634C333.113 154.488 332.697 153.045 331.551 152.413L327.835 150.361C324.626 148.589 323.074 144.947 323.734 141.342C324.376 137.838 324.6 134.303 324.427 130.806C324.372 129.686 325.058 128.674 326.135 128.363L334.524 125.942C335.782 125.58 336.507 124.266 336.144 123.008L332.604 110.735C332.241 109.476 330.926 108.751 329.668 109.114L325.589 110.291C322.061 111.309 318.385 109.82 316.299 106.798C315.101 105.063 313.777 103.402 312.333 101.829C309.854 99.1306 309.229 95.221 311 92.0133L313.054 88.2929C313.687 87.1468 313.271 85.7045 312.125 85.0717L300.941 78.8957C299.794 78.2629 298.352 78.679 297.719 79.8248L295.665 83.5458C293.893 86.7534 290.252 88.3068 286.648 87.647C284.549 87.2626 282.439 87.0281 280.332 86.939C276.663 86.7843 273.444 84.4656 272.426 80.9367L271.248 76.855C270.885 75.5967 269.571 74.8712 268.313 75.2344L256.04 78.7751C254.782 79.1379 254.056 80.4519 254.419 81.71L255.597 85.7915C256.615 89.3208 255.126 92.9972 252.103 95.0832C250.368 96.2806 248.706 97.6033 247.135 99.0466C244.436 101.525 240.527 102.15 237.319 100.379L233.598 98.3241C232.452 97.6912 231.01 98.1073 230.377 99.2535L224.201 110.438C223.568 111.584 223.984 113.026 225.131 113.659L228.851 115.714C232.059 117.485 233.612 121.127 232.951 124.731C232.567 126.831 232.332 128.942 232.242 131.049C232.087 134.718 229.768 137.936 226.24 138.953L222.16 140.131C220.902 140.493 220.177 141.807 220.54 143.066L224.081 155.338C224.443 156.596 225.757 157.322 227.015 156.959L231.094 155.782C234.623 154.764 238.3 156.253 240.386 159.275C241.583 161.011 242.906 162.672 244.35 164.244C246.829 166.944 247.455 170.853 245.683 174.061L243.629 177.78C242.997 178.926 243.413 180.369 244.559 181.001Z" fill="#0042CD"/>
<path d="M314.203 132.585C314.203 152.704 297.893 169.013 277.775 169.013C257.656 169.013 241.347 152.704 241.347 132.585C241.347 112.467 257.656 96.1572 277.775 96.1572C297.893 96.1572 314.203 112.467 314.203 132.585Z" fill="white"/>
<path d="M263.255 143.769C265.159 143.081 267.261 144.067 267.949 145.972C268.638 147.876 267.651 149.978 265.747 150.666C263.843 151.355 261.741 150.369 261.052 148.464C260.364 146.56 261.35 144.458 263.255 143.769Z" fill="#0042CD"/>
<path d="M272.664 147.211C272.668 145.945 273.697 144.922 274.963 144.926C276.229 144.93 277.252 145.959 277.248 147.224C277.244 148.49 276.215 149.513 274.949 149.509C273.683 149.506 272.66 148.476 272.664 147.211Z" fill="#0042CD"/>
<path d="M268.814 132.739C271.671 131.706 274.824 133.186 275.856 136.043C276.889 138.9 275.409 142.052 272.553 143.085C269.696 144.117 266.542 142.639 265.51 139.781C264.478 136.924 265.957 133.771 268.814 132.739Z" fill="#0042CD"/>
<path d="M276.296 114.621C278.206 113.759 280.452 114.609 281.314 116.518L294.38 145.462C295.241 147.372 294.392 149.619 292.483 150.48C290.573 151.343 288.327 150.493 287.464 148.584L274.399 119.64C273.537 117.73 274.386 115.483 276.296 114.621Z" fill="#0042CD"/>
<path d="M211.108 52.8609C213.365 54.2296 214.087 57.1735 212.718 59.4306C211.349 61.6878 208.406 62.4091 206.148 61.0404C203.891 59.6717 203.17 56.7279 204.539 54.4707C205.907 52.2136 208.851 51.4922 211.108 52.8609Z" fill="white"/>
<path d="M211.108 52.8609C213.365 54.2296 214.087 57.1735 212.718 59.4306C211.349 61.6878 208.406 62.4091 206.148 61.0404C203.891 59.6717 203.17 56.7279 204.539 54.4707C205.907 52.2136 208.851 51.4922 211.108 52.8609Z" stroke="#202BD8" stroke-width="1.30443"/>
<mask id="mask2_3_2" style="mask-type:luminance" maskUnits="userSpaceOnUse" x="27" y="108" width="835" height="471">
<path d="M27.0694 108.797H861.905V578.392H27.0694V108.797Z" fill="white"/>
</mask>
<g mask="url(#mask2_3_2)">
<path d="M521.529 364.902L521.485 363.188C521.484 363.146 521.518 363.11 521.561 363.109C521.603 363.108 521.638 363.142 521.639 363.184C521.639 363.186 521.639 363.189 521.639 363.191L521.529 364.902Z" fill="#5C3B99"/>
<path d="M521.46 361.474L521.434 359.76C521.433 359.653 521.519 359.563 521.627 359.562C521.736 359.56 521.825 359.647 521.827 359.755C521.827 359.759 521.826 359.764 521.826 359.768L521.733 361.48C521.728 361.555 521.664 361.612 521.589 361.608C521.517 361.605 521.461 361.545 521.46 361.474Z" fill="#5C3B99"/>
<path d="M521.419 358.046L521.41 356.334C521.41 356.175 521.537 356.045 521.697 356.045C521.856 356.044 521.985 356.172 521.986 356.331C521.986 356.335 521.986 356.341 521.986 356.345L521.909 358.056C521.903 358.192 521.788 358.296 521.653 358.29C521.522 358.284 521.42 358.176 521.419 358.046Z" fill="#5C3B99"/>
<path d="M521.411 354.621L521.414 352.908C521.414 352.713 521.572 352.555 521.767 352.556C521.962 352.556 522.118 352.714 522.118 352.909C522.118 352.912 522.118 352.918 522.118 352.922L522.053 354.633C522.046 354.811 521.897 354.949 521.72 354.942C521.546 354.936 521.411 354.793 521.411 354.621Z" fill="#5C3B99"/>
<path d="M521.423 351.195L521.438 349.482C521.44 349.263 521.618 349.088 521.837 349.09C522.055 349.092 522.231 349.271 522.229 349.489C522.229 349.492 522.229 349.496 522.229 349.498L522.176 351.21C522.171 351.418 521.996 351.581 521.788 351.575C521.583 351.568 521.421 351.399 521.423 351.195Z" fill="#5C3B99"/>
<path d="M521.454 347.769L521.48 346.057C521.484 345.823 521.675 345.638 521.908 345.641C522.141 345.645 522.328 345.837 522.324 346.07V346.073L522.282 347.785C522.277 348.014 522.087 348.195 521.858 348.189C521.631 348.184 521.451 347.996 521.454 347.769Z" fill="#5C3B99"/>
<path d="M521.508 344.344L521.535 342.632C521.539 342.392 521.737 342.201 521.977 342.205C522.216 342.209 522.408 342.406 522.404 342.646V342.649L522.364 344.361C522.358 344.597 522.162 344.784 521.926 344.779C521.691 344.773 521.504 344.579 521.508 344.344Z" fill="#5C3B99"/>
<path d="M521.574 340.919L521.615 339.207C521.62 338.973 521.814 338.789 522.047 338.794C522.28 338.8 522.464 338.991 522.461 339.224L522.433 340.936C522.429 341.173 522.234 341.362 521.997 341.358C521.76 341.354 521.571 341.159 521.574 340.922V340.919Z" fill="#5C3B99"/>
<path d="M521.655 337.494L521.706 335.782C521.713 335.562 521.898 335.389 522.118 335.395C522.335 335.402 522.507 335.582 522.505 335.798L522.488 337.511C522.486 337.741 522.298 337.926 522.068 337.923C521.838 337.921 521.652 337.733 521.654 337.503C521.654 337.501 521.655 337.496 521.655 337.494Z" fill="#5C3B99"/>
<path d="M521.759 334.07C521.766 333.784 521.782 333.496 521.777 333.233C521.77 332.964 521.75 332.694 521.712 332.427C521.684 332.231 521.819 332.049 522.015 332.021C522.206 331.994 522.384 332.123 522.419 332.311C522.473 332.608 522.507 332.908 522.518 333.21C522.531 333.518 522.52 333.801 522.52 334.085C522.52 334.295 522.349 334.466 522.139 334.465C521.929 334.465 521.759 334.295 521.759 334.085V334.078V334.07Z" fill="#5C3B99"/>
<path d="M521.273 330.868C521.059 330.37 520.778 329.899 520.441 329.47C520.34 329.342 520.363 329.156 520.491 329.055C520.616 328.957 520.796 328.976 520.899 329.096C521.285 329.55 521.612 330.057 521.869 330.599C521.947 330.762 521.877 330.957 521.714 331.034C521.551 331.112 521.356 331.043 521.278 330.88C521.277 330.877 521.274 330.871 521.273 330.868Z" fill="#5C3B99"/>
<path d="M519.279 328.316C518.843 327.982 518.359 327.709 517.849 327.494C517.745 327.449 517.696 327.329 517.74 327.225C517.782 327.125 517.895 327.076 517.996 327.11C518.554 327.299 519.084 327.574 519.574 327.908C519.689 327.985 519.719 328.142 519.64 328.258C519.562 328.373 519.406 328.403 519.29 328.325C519.287 328.322 519.283 328.319 519.279 328.316Z" fill="#5C3B99"/>
<path d="M516.245 327.055L515.828 327.015C515.69 326.997 515.544 327.001 515.402 326.994L514.546 326.966C514.484 326.964 514.436 326.912 514.438 326.851C514.44 326.79 514.49 326.742 514.551 326.743C515.124 326.748 515.686 326.745 516.274 326.765C516.355 326.768 516.418 326.835 516.415 326.915C516.412 326.996 516.345 327.059 516.264 327.056C516.261 327.056 516.258 327.056 516.255 327.055L516.245 327.055Z" fill="#5C3B99"/>
<path d="M512.834 326.909L511.121 326.854C511.085 326.852 511.056 326.821 511.057 326.784C511.058 326.748 511.088 326.719 511.124 326.72L512.837 326.731C512.887 326.731 512.927 326.771 512.926 326.821C512.926 326.87 512.885 326.91 512.836 326.909H512.834Z" fill="#5C3B99"/>
<path d="M509.41 326.79L507.698 326.726C507.694 326.726 507.691 326.722 507.691 326.718C507.691 326.714 507.694 326.711 507.698 326.711L509.412 326.715C509.432 326.715 509.449 326.732 509.449 326.752C509.449 326.773 509.432 326.79 509.412 326.79H509.41Z" fill="#5C3B99"/>
<path d="M412.272 292.533L413.984 292.474C414.013 292.473 414.036 292.495 414.037 292.523C414.038 292.551 414.016 292.575 413.988 292.576H413.985L412.272 292.533Z" fill="#5C3B99"/>
<path d="M415.697 292.424L417.41 292.378C417.482 292.376 417.543 292.434 417.544 292.506C417.547 292.579 417.489 292.639 417.417 292.641H417.411L415.697 292.611C415.646 292.61 415.605 292.568 415.606 292.516C415.607 292.466 415.647 292.425 415.697 292.424Z" fill="#5C3B99"/>
<path d="M419.122 292.332L420.835 292.287C420.95 292.284 421.045 292.374 421.048 292.488C421.051 292.603 420.961 292.699 420.846 292.702C420.843 292.702 420.84 292.702 420.837 292.702L419.124 292.671C419.03 292.67 418.956 292.593 418.958 292.499C418.959 292.408 419.032 292.335 419.122 292.332Z" fill="#5C3B99"/>
<path d="M422.547 292.252L424.26 292.221C424.403 292.218 424.52 292.332 424.523 292.474C424.525 292.617 424.412 292.734 424.269 292.737H424.262L422.55 292.721C422.42 292.72 422.316 292.614 422.317 292.485C422.318 292.357 422.421 292.254 422.547 292.252Z" fill="#5C3B99"/>
<path d="M425.973 292.19L427.685 292.159C427.853 292.156 427.992 292.29 427.995 292.458C427.998 292.626 427.864 292.765 427.696 292.768C427.694 292.768 427.69 292.768 427.688 292.768L425.975 292.752C425.819 292.751 425.695 292.624 425.696 292.469C425.698 292.316 425.821 292.193 425.973 292.19Z" fill="#5C3B99"/>
<path d="M429.398 292.128L431.111 292.097C431.304 292.093 431.464 292.248 431.468 292.441C431.471 292.635 431.317 292.795 431.123 292.799H431.114L429.4 292.783C429.22 292.782 429.074 292.634 429.076 292.453C429.077 292.275 429.221 292.131 429.398 292.128Z" fill="#5C3B99"/>
<path d="M432.823 292.071L434.536 292.056C434.744 292.054 434.915 292.221 434.916 292.43C434.918 292.638 434.751 292.808 434.543 292.81H434.54H432.827C432.623 292.81 432.457 292.645 432.457 292.441C432.457 292.238 432.621 292.073 432.823 292.071Z" fill="#5C3B99"/>
<path d="M436.249 292.04L437.961 292.025C438.178 292.023 438.355 292.197 438.358 292.414C438.359 292.63 438.185 292.808 437.969 292.81H437.965H436.252C436.04 292.81 435.868 292.638 435.868 292.425C435.868 292.214 436.038 292.042 436.249 292.04Z" fill="#5C3B99"/>
<path d="M439.674 292.01L441.387 291.994C441.612 291.992 441.796 292.173 441.798 292.398C441.8 292.624 441.619 292.808 441.394 292.81H441.39H439.678C439.457 292.81 439.278 292.631 439.278 292.41C439.278 292.19 439.455 292.012 439.674 292.01Z" fill="#5C3B99"/>
<path d="M443.1 291.978L444.812 291.964C445.046 291.961 445.237 292.149 445.239 292.382C445.241 292.616 445.054 292.807 444.82 292.809H444.817H443.103C442.874 292.809 442.688 292.624 442.688 292.395C442.688 292.166 442.873 291.981 443.1 291.978Z" fill="#5C3B99"/>
<path d="M446.525 291.948L448.238 291.941C448.476 291.939 448.67 292.131 448.671 292.37C448.672 292.608 448.48 292.801 448.242 292.803L446.529 292.81C446.291 292.811 446.098 292.619 446.097 292.381C446.096 292.143 446.288 291.949 446.525 291.948Z" fill="#5C3B99"/>
<path d="M449.95 291.94H451.663C451.893 291.94 452.079 292.126 452.079 292.356C452.079 292.584 451.895 292.769 451.667 292.771L449.954 292.787C449.721 292.789 449.529 292.601 449.527 292.367C449.525 292.134 449.713 291.942 449.947 291.94H449.95Z" fill="#5C3B99"/>
<path d="M453.377 291.94H455.089C455.31 291.94 455.489 292.119 455.489 292.34C455.489 292.56 455.312 292.738 455.093 292.74L453.381 292.755C453.155 292.758 452.97 292.577 452.969 292.351C452.967 292.126 453.148 291.942 453.373 291.94H453.377Z" fill="#5C3B99"/>
<path d="M456.802 291.94H458.514C458.727 291.94 458.899 292.112 458.899 292.325C458.899 292.536 458.729 292.708 458.518 292.71L456.806 292.725C456.589 292.727 456.412 292.553 456.409 292.337C456.408 292.12 456.582 291.942 456.798 291.94H456.802Z" fill="#5C3B99"/>
<path d="M460.268 292.037L461.999 292.339C462.2 292.374 462.334 292.565 462.299 292.765C462.264 292.965 462.076 293.098 461.876 293.065L461.832 293.058L460.186 292.786L460.142 292.779C459.937 292.745 459.798 292.551 459.832 292.346C459.865 292.141 460.059 292.002 460.264 292.036L460.268 292.037Z" fill="#5C3B99"/>
<path d="M463.677 292.864C464.224 293.076 464.757 293.325 465.27 293.609C465.428 293.697 465.485 293.895 465.397 294.053C465.311 294.208 465.117 294.266 464.961 294.185C464.467 293.929 463.957 293.707 463.433 293.52C463.251 293.455 463.156 293.255 463.221 293.073C463.286 292.891 463.487 292.795 463.668 292.86C463.67 292.862 463.675 292.863 463.677 292.864Z" fill="#5C3B99"/>
<path d="M466.74 294.576C467.205 294.936 467.642 295.333 468.039 295.768C468.143 295.882 468.135 296.059 468.021 296.163C467.909 296.266 467.735 296.26 467.631 296.151C467.245 295.752 466.823 295.388 466.375 295.06C466.24 294.961 466.21 294.772 466.309 294.636C466.408 294.501 466.598 294.472 466.733 294.57C466.735 294.572 466.738 294.574 466.74 294.576Z" fill="#5C3B99"/>
<path d="M469.098 297.178C469.403 297.683 469.654 298.221 469.839 298.782C469.879 298.904 469.812 299.036 469.689 299.076C469.569 299.116 469.44 299.052 469.397 298.934C469.21 298.413 468.961 297.915 468.662 297.449C468.585 297.33 468.62 297.171 468.74 297.095C468.859 297.018 469.018 297.053 469.094 297.172C469.095 297.174 469.097 297.177 469.098 297.178Z" fill="#5C3B99"/>
<path d="M470.178 300.511C470.184 300.805 470.197 301.102 470.187 301.384L470.172 302.24C470.17 302.332 470.094 302.406 470.002 302.404C469.913 302.403 469.841 302.33 469.839 302.242L469.816 301.386C469.813 301.096 469.787 300.824 469.77 300.547L469.769 300.529C469.762 300.415 469.847 300.318 469.96 300.311C470.073 300.304 470.17 300.39 470.178 300.502C470.178 300.505 470.178 300.509 470.178 300.511Z" fill="#5C3B99"/>
<path d="M470.141 303.953L470.111 305.666C470.11 305.716 470.069 305.756 470.019 305.755C469.97 305.754 469.932 305.715 469.931 305.667L469.884 303.954C469.883 303.884 469.938 303.825 470.009 303.823C470.08 303.821 470.139 303.877 470.141 303.948V303.953Z" fill="#5C3B99"/>
<path d="M470.074 307.379L470.035 308.912L469.982 307.38C469.981 307.355 470.001 307.333 470.026 307.332C470.052 307.332 470.073 307.351 470.074 307.376V307.379Z" fill="#5C3B99"/>
<path d="M398.919 370.928L410.947 370.959L410.965 333.058L398.937 333.025L398.919 370.928Z" fill="#D6D9D4"/>
<path d="M452.376 371L464.404 371.019L464.437 329.304L452.409 329.286L452.376 371Z" fill="#D6D9D4"/>
<path d="M479.106 371.04L491.133 371.049L491.187 341.166L479.159 341.158L479.106 371.04Z" fill="#D6D9D4"/>
<path d="M425.648 370.98L437.676 370.989L437.712 347.668L425.684 347.659L425.648 370.98Z" fill="#D6D9D4"/>
<mask id="mask3_3_2" style="mask-type:alpha" maskUnits="userSpaceOnUse" x="373" y="320" width="98" height="53">
<path d="M375.352 371.748C375.352 371.748 384.864 347.562 397.31 349.682C409.757 351.801 413.833 357.454 421.007 346.258C428.182 335.061 431.334 329.789 440.248 338.866C449.161 347.942 451.39 347.018 456.607 341.909C458.909 338.841 463.765 329.475 469.591 321.001" stroke="#202BD8" stroke-width="3.04367"/>
</mask>
<g mask="url(#mask3_3_2)">
<path d="M375.148 372.102L376.244 369.412C376.614 368.516 377.032 367.642 377.424 366.755C377.817 365.868 378.29 365.019 378.719 364.148C379.155 363.28 379.662 362.45 380.132 361.598C380.635 360.766 381.151 359.939 381.689 359.126C382.257 358.333 382.794 357.516 383.423 356.764C384.013 355.982 384.687 355.265 385.346 354.535L386.409 353.506C386.759 353.158 387.161 352.864 387.536 352.539C389.084 351.303 390.841 350.272 392.772 349.655C394.698 349.058 396.784 348.85 398.81 349.179C399.815 349.358 400.8 349.624 401.733 349.972C402.666 350.311 403.57 350.699 404.451 351.048C406.215 351.763 407.974 352.267 409.764 352.2C411.54 352.111 413.346 351.643 414.898 350.741C415.683 350.303 416.424 349.782 417.104 349.175C417.789 348.575 418.432 347.915 419.024 347.198C420.219 345.774 421.253 344.181 422.279 342.553C423.308 340.925 424.317 339.243 425.571 337.647C426.199 336.853 426.889 336.076 427.709 335.395C428.529 334.716 429.484 334.135 430.539 333.779C431.596 333.425 432.705 333.286 433.823 333.376C434.945 333.459 436.038 333.846 436.984 334.381C438.895 335.471 440.245 337.043 441.527 338.504C442.802 339.976 444.003 341.448 445.391 342.554C446.764 343.666 448.344 344.314 450.014 344.21C451.66 344.134 453.213 343.301 454.542 342.101C455.879 340.902 457.029 339.411 458.092 337.853C459.156 336.291 460.127 334.641 461.097 332.979C463.025 329.649 464.882 326.234 466.945 322.918C468.999 319.601 471.268 316.372 473.964 313.483C476.648 310.6 479.783 308.052 483.369 306.322C484.263 305.888 485.182 305.508 486.124 305.194C486.595 305.041 487.051 304.842 487.534 304.728L488.97 304.351C490.901 303.928 492.863 303.629 494.832 303.61C495.815 303.551 496.797 303.636 497.777 303.656L499.24 303.792C499.484 303.816 499.728 303.834 499.97 303.864L500.696 303.972C502.636 304.225 504.537 304.68 506.415 305.185C508.291 305.705 510.125 306.35 511.936 307.046C513.734 307.778 515.499 308.577 517.236 309.433C513.674 307.919 510.02 306.627 506.274 305.734C504.398 305.312 502.508 304.942 500.599 304.773L499.884 304.697C499.646 304.677 499.406 304.67 499.168 304.656L497.736 304.582C496.782 304.604 495.827 304.559 494.878 304.657C492.976 304.743 491.1 305.081 489.268 305.542L487.908 305.943C487.451 306.064 487.023 306.269 486.579 306.428C485.693 306.751 484.833 307.138 483.998 307.575C480.651 309.317 477.713 311.776 475.196 314.609C472.672 317.444 470.527 320.618 468.542 323.896C466.558 327.18 464.76 330.592 462.854 333.985C461.902 335.682 460.905 337.366 459.801 339.01C458.691 340.647 457.477 342.26 455.936 343.658C455.167 344.356 454.298 344.985 453.318 345.467C452.346 345.957 451.243 346.253 450.132 346.321C449.026 346.389 447.899 346.22 446.858 345.837C445.815 345.456 444.878 344.88 444.057 344.225C442.42 342.899 441.178 341.33 439.926 339.882C438.684 338.437 437.432 337.035 435.957 336.198C435.224 335.783 434.449 335.505 433.637 335.442C432.828 335.373 431.978 335.474 431.201 335.732C429.627 336.245 428.299 337.479 427.147 338.908C424.832 341.796 423.079 345.36 420.447 348.408C419.798 349.175 419.078 349.898 418.299 350.562C417.525 351.23 416.672 351.827 415.755 352.309C415.305 352.567 414.821 352.758 414.347 352.967C413.856 353.132 413.374 353.327 412.868 353.437C412.617 353.496 412.37 353.575 412.115 353.616L411.347 353.738C410.84 353.842 410.312 353.828 409.794 353.861C407.695 353.899 405.659 353.245 403.871 352.472C402.064 351.696 400.363 350.909 398.566 350.553C396.777 350.209 394.906 350.333 393.125 350.825C391.346 351.333 389.685 352.247 388.172 353.364C387.803 353.659 387.409 353.921 387.059 354.243L385.997 355.19C385.332 355.869 384.649 356.535 384.042 357.276C383.397 357.983 382.837 358.764 382.247 359.52C381.685 360.298 381.143 361.092 380.611 361.894C380.113 362.717 379.576 363.519 379.108 364.363C378.645 365.208 378.145 366.035 377.711 366.898C377.273 367.758 376.808 368.607 376.391 369.479L375.148 372.102Z" fill="#2957D9"/>
<path d="M375.08 375.554L376.176 372.864C376.546 371.969 376.964 371.094 377.356 370.207C377.75 369.32 378.222 368.471 378.652 367.601C379.088 366.733 379.595 365.903 380.063 365.05C380.567 364.219 381.083 363.391 381.621 362.579C382.189 361.785 382.726 360.968 383.356 360.217C383.945 359.434 384.619 358.718 385.279 357.988L386.342 356.958C386.692 356.61 387.094 356.316 387.469 355.992C389.017 354.755 390.774 353.724 392.704 353.107C394.63 352.51 396.716 352.303 398.742 352.631C399.747 352.811 400.733 353.076 401.666 353.424C402.598 353.764 403.502 354.151 404.384 354.5C406.148 355.215 407.906 355.719 409.696 355.652C411.473 355.564 413.278 355.096 414.83 354.194C415.615 353.757 416.356 353.234 417.037 352.627C417.721 352.027 418.365 351.367 418.956 350.65C420.152 349.226 421.185 347.633 422.211 346.006C423.241 344.378 424.248 342.696 425.502 341.1C426.132 340.306 426.821 339.528 427.642 338.847C428.461 338.169 429.416 337.587 430.471 337.231C431.528 336.877 432.637 336.739 433.755 336.829C434.877 336.912 435.97 337.299 436.916 337.834C438.827 338.924 440.177 340.495 441.459 341.956C442.734 343.428 443.935 344.9 445.322 346.007C446.696 347.119 448.276 347.766 449.946 347.661C451.592 347.586 453.146 346.754 454.475 345.554C455.811 344.355 456.961 342.863 458.024 341.305C459.088 339.743 460.06 338.093 461.029 336.432C462.957 333.102 464.814 329.686 466.876 326.37C468.931 323.053 471.2 319.825 473.895 316.936C476.58 314.053 479.715 311.504 483.302 309.775C484.195 309.34 485.114 308.96 486.055 308.647C486.527 308.494 486.983 308.294 487.466 308.18L488.903 307.803C490.833 307.38 492.795 307.082 494.764 307.062C495.748 307.003 496.729 307.088 497.709 307.108L499.172 307.244C499.416 307.269 499.66 307.286 499.903 307.317L500.628 307.425C502.568 307.678 504.47 308.132 506.347 308.638C508.223 309.157 510.058 309.803 511.868 310.499C513.666 311.23 515.432 312.029 517.168 312.885C513.606 311.371 509.952 310.079 506.206 309.186C504.329 308.764 502.44 308.395 500.53 308.226L499.816 308.149C499.578 308.13 499.339 308.122 499.1 308.109L497.669 308.035C496.714 308.056 495.759 308.012 494.811 308.109C492.908 308.196 491.032 308.533 489.2 308.994L487.841 309.395C487.384 309.516 486.955 309.722 486.512 309.88C485.626 310.203 484.765 310.59 483.93 311.027C480.583 312.769 477.645 315.228 475.128 318.06C472.604 320.896 470.46 324.071 468.474 327.348C466.49 330.633 464.692 334.044 462.786 337.436C461.835 339.134 460.837 340.819 459.733 342.463C458.623 344.1 457.409 345.712 455.867 347.111C455.099 347.808 454.229 348.438 453.25 348.919C452.278 349.409 451.175 349.705 450.064 349.773C448.959 349.842 447.832 349.672 446.79 349.289C445.748 348.909 444.811 348.332 443.989 347.678C442.352 346.351 441.11 344.783 439.858 343.335C438.616 341.89 437.364 340.487 435.89 339.651C435.156 339.235 434.381 338.958 433.569 338.895C432.76 338.827 431.911 338.927 431.133 339.184C429.559 339.698 428.231 340.931 427.079 342.361C424.764 345.249 423.011 348.812 420.379 351.861C419.73 352.627 419.01 353.351 418.231 354.015C417.457 354.683 416.604 355.28 415.687 355.761C415.237 356.019 414.753 356.211 414.279 356.419C413.789 356.584 413.306 356.779 412.8 356.89C412.549 356.949 412.302 357.028 412.047 357.069L411.279 357.19C410.772 357.294 410.244 357.281 409.726 357.314C407.627 357.351 405.591 356.697 403.803 355.924C401.996 355.148 400.296 354.361 398.498 354.004C396.709 353.661 394.838 353.786 393.058 354.277C391.278 354.785 389.617 355.699 388.104 356.817C387.736 357.112 387.341 357.374 386.992 357.695L385.929 358.642C385.264 359.322 384.581 359.987 383.974 360.728C383.329 361.435 382.77 362.216 382.18 362.972C381.617 363.75 381.074 364.545 380.543 365.347C380.045 366.17 379.508 366.972 379.04 367.815C378.577 368.661 378.077 369.488 377.644 370.35C377.205 371.211 376.74 372.059 376.322 372.931L375.08 375.554Z" fill="#2957D9"/>
</g>
</g>
</g>
</g>
<path d="M26.8409 56H16.5284V26.9091H26.9261C29.8523 26.9091 32.3712 27.4915 34.483 28.6562C36.5947 29.8116 38.2188 31.4735 39.3551 33.642C40.5009 35.8106 41.0739 38.4053 41.0739 41.4261C41.0739 44.4564 40.5009 47.0606 39.3551 49.2386C38.2188 51.4167 36.5852 53.0881 34.4545 54.2528C32.3333 55.4176 29.7955 56 26.8409 56ZM22.679 50.7301H26.5852C28.4034 50.7301 29.9328 50.4081 31.1733 49.7642C32.4233 49.1108 33.3608 48.1023 33.9858 46.7386C34.6203 45.3655 34.9375 43.5947 34.9375 41.4261C34.9375 39.2765 34.6203 37.5199 33.9858 36.1562C33.3608 34.7926 32.428 33.7888 31.1875 33.1449C29.947 32.5009 28.4176 32.179 26.5994 32.179H22.679V50.7301ZM49.0036 56H42.4126L52.4553 26.9091H60.3814L70.4098 56H63.8189L56.532 33.5568H56.3047L49.0036 56ZM48.5916 44.5653H64.1598V49.3665H48.5916V44.5653ZM69.2486 31.9801V26.9091H93.1406V31.9801H84.2344V56H78.1548V31.9801H69.2486ZM98.5348 56H91.9439L101.987 26.9091H109.913L119.941 56H113.35L106.063 33.5568H105.836L98.5348 56ZM98.1229 44.5653H113.691V49.3665H98.1229V44.5653Z" fill="white"/>
<path d="M406.077 412L397.753 382.909H404.472L409.287 403.122H409.528L414.841 382.909H420.594L425.892 403.165H426.148L430.963 382.909H437.682L429.358 412H423.364L417.824 392.98H417.597L412.071 412H406.077ZM440.974 412V382.909H460.576V387.98H447.124V394.912H459.567V399.983H447.124V406.929H460.633V412H440.974ZM465.466 412V382.909H477.114C479.254 382.909 481.039 383.226 482.469 383.861C483.899 384.495 484.973 385.376 485.693 386.503C486.413 387.62 486.773 388.908 486.773 390.366C486.773 391.503 486.545 392.502 486.091 393.364C485.636 394.216 485.011 394.917 484.216 395.466C483.43 396.006 482.53 396.389 481.517 396.616V396.901C482.625 396.948 483.662 397.26 484.628 397.838C485.603 398.416 486.394 399.225 487 400.267C487.606 401.299 487.909 402.53 487.909 403.96C487.909 405.504 487.526 406.882 486.759 408.094C486.001 409.296 484.879 410.248 483.392 410.949C481.905 411.65 480.073 412 477.895 412H465.466ZM471.616 406.972H476.631C478.345 406.972 479.595 406.645 480.381 405.991C481.167 405.329 481.56 404.448 481.56 403.349C481.56 402.545 481.366 401.834 480.977 401.219C480.589 400.603 480.035 400.12 479.315 399.77C478.605 399.42 477.758 399.244 476.773 399.244H471.616V406.972ZM471.616 395.082H476.176C477.019 395.082 477.767 394.936 478.42 394.642C479.083 394.339 479.604 393.913 479.983 393.364C480.371 392.814 480.565 392.156 480.565 391.389C480.565 390.338 480.191 389.491 479.443 388.847C478.705 388.203 477.653 387.881 476.29 387.881H471.616V395.082ZM506.183 412H499.592L509.635 382.909H517.561L527.589 412H520.999L513.712 389.557H513.484L506.183 412ZM505.771 400.565H521.339V405.366H505.771V400.565ZM531.091 412V382.909H542.568C544.775 382.909 546.654 383.33 548.207 384.173C549.76 385.007 550.944 386.167 551.759 387.653C552.582 389.131 552.994 390.835 552.994 392.767C552.994 394.699 552.578 396.403 551.744 397.881C550.911 399.358 549.704 400.509 548.122 401.332C546.55 402.156 544.647 402.568 542.412 402.568H535.097V397.639H541.418C542.601 397.639 543.577 397.436 544.344 397.028C545.12 396.612 545.698 396.039 546.077 395.31C546.465 394.571 546.659 393.723 546.659 392.767C546.659 391.801 546.465 390.958 546.077 390.239C545.698 389.509 545.12 388.946 544.344 388.548C543.567 388.141 542.582 387.938 541.389 387.938H537.241V412H531.091ZM556.989 412V382.909H568.467C570.673 382.909 572.553 383.33 574.106 384.173C575.659 385.007 576.843 386.167 577.657 387.653C578.481 389.131 578.893 390.835 578.893 392.767C578.893 394.699 578.476 396.403 577.643 397.881C576.809 399.358 575.602 400.509 574.021 401.332C572.449 402.156 570.545 402.568 568.31 402.568H560.995V397.639H567.316C568.5 397.639 569.475 397.436 570.242 397.028C571.019 396.612 571.596 396.039 571.975 395.31C572.363 394.571 572.558 393.723 572.558 392.767C572.558 391.801 572.363 390.958 571.975 390.239C571.596 389.509 571.019 388.946 570.242 388.548C569.466 388.141 568.481 387.938 567.288 387.938H563.14V412H556.989Z" fill="white"/>
</g>
<defs>
<clipPath id="clip0_3_2">
<rect width="590" height="463" fill="white"/>
</clipPath>
</defs>
</svg>
