<?xml version="1.0" encoding="UTF-8" standalone="no"?><svg width="16" height="16" viewBox="0 0 16 16" fill="none" xmlns="http://www.w3.org/2000/svg">
<path fill-rule="evenodd" clip-rule="evenodd" d="M8 1.00302C6.14348 1.00302 4.36301 1.74052 3.05025 3.05327C1.7375 4.36603 1 6.14651 1 8.00302V8.43302C1.09 9.94302 2.91 10.223 4 9.13302C4.35648 8.81622 4.82054 8.64758 5.29724 8.66161C5.77395 8.67565 6.22728 8.87129 6.56451 9.20852C6.90174 9.54574 7.09738 9.99907 7.11141 10.4758C7.12544 10.9525 6.95681 11.4165 6.64 11.773C5.54 12.933 5.85 14.843 7.44 14.973H8.04C9.89652 14.973 11.677 14.2355 12.9897 12.9228C14.3025 11.61 15.04 9.82954 15.04 7.97302C15.04 6.11651 14.3025 4.33603 12.9897 3.02327C11.677 1.71052 9.89652 0.973022 8.04 0.973022L8 1.00302V1.00302ZM8 14.003H7.48C7.34753 13.9989 7.22048 13.9495 7.12 13.863C7.04052 13.7807 6.98817 13.676 6.97 13.563C6.93813 13.3681 6.95326 13.1685 7.01414 12.9806C7.07502 12.7928 7.17988 12.6222 7.32 12.483C7.84047 11.9474 8.13163 11.2299 8.13163 10.483C8.13163 9.73614 7.84047 9.01869 7.32 8.48302C7.05347 8.21634 6.73701 8.00478 6.3887 7.86044C6.04038 7.71611 5.66704 7.64182 5.29 7.64182C4.91296 7.64182 4.53962 7.71611 4.1913 7.86044C3.84299 8.00478 3.52653 8.21634 3.26 8.48302C3.15067 8.6108 3.01089 8.70894 2.85357 8.76837C2.69626 8.8278 2.5265 8.84659 2.36 8.82302C2.27594 8.80696 2.19901 8.765 2.14 8.70302C2.07129 8.62242 2.03558 8.51884 2.04 8.41302V8.04302C2.04 6.85633 2.39189 5.6963 3.05118 4.7096C3.71047 3.72291 4.64754 2.95387 5.7439 2.49975C6.84026 2.04562 8.04666 1.9268 9.21054 2.15831C10.3744 2.38982 11.4435 2.96127 12.2826 3.80038C13.1218 4.6395 13.6932 5.70859 13.9247 6.87248C14.1562 8.03637 14.0374 9.24277 13.5833 10.3391C13.1292 11.4355 12.3601 12.3726 11.3734 13.0318C10.3867 13.6911 9.22669 14.043 8.04 14.043L8 14.003V14.003ZM9 3.99702C9 4.26224 8.89464 4.51659 8.70711 4.70413C8.51957 4.89167 8.26522 4.99702 8 4.99702C7.73478 4.99702 7.48043 4.89167 7.29289 4.70413C7.10536 4.51659 7 4.26224 7 3.99702C7 3.73181 7.10536 3.47745 7.29289 3.28992C7.48043 3.10238 7.73478 2.99702 8 2.99702C8.26522 2.99702 8.51957 3.10238 8.70711 3.28992C8.89464 3.47745 9 3.73181 9 3.99702V3.99702ZM12 11.004C12 11.2692 11.8946 11.5236 11.7071 11.7111C11.5196 11.8987 11.2652 12.004 11 12.004C10.7348 12.004 10.4804 11.8987 10.2929 11.7111C10.1054 11.5236 10 11.2692 10 11.004C10 10.7388 10.1054 10.4845 10.2929 10.2969C10.4804 10.1094 10.7348 10.004 11 10.004C11.2652 10.004 11.5196 10.1094 11.7071 10.2969C11.8946 10.4845 12 10.7388 12 11.004V11.004ZM5 6.00402C5.26522 6.00402 5.51957 5.89867 5.70711 5.71113C5.89464 5.52359 6 5.26924 6 5.00402C6 4.73881 5.89464 4.48445 5.70711 4.29692C5.51957 4.10938 5.26522 4.00402 5 4.00402C4.73478 4.00402 4.48043 4.10938 4.29289 4.29692C4.10536 4.48445 4 4.73881 4 5.00402C4 5.26924 4.10536 5.52359 4.29289 5.71113C4.48043 5.89867 4.73478 6.00402 5 6.00402ZM12 5.00402C12 5.26924 11.8946 5.52359 11.7071 5.71113C11.5196 5.89867 11.2652 6.00402 11 6.00402C10.7348 6.00402 10.4804 5.89867 10.2929 5.71113C10.1054 5.52359 10 5.26924 10 5.00402C10 4.73881 10.1054 4.48445 10.2929 4.29692C10.4804 4.10938 10.7348 4.00402 11 4.00402C11.2652 4.00402 11.5196 4.10938 11.7071 4.29692C11.8946 4.48445 12 4.73881 12 5.00402ZM13 8.00002C13 8.26524 12.8946 8.51959 12.7071 8.70713C12.5196 8.89467 12.2652 9.00002 12 9.00002C11.7348 9.00002 11.4804 8.89467 11.2929 8.70713C11.1054 8.51959 11 8.26524 11 8.00002C11 7.73481 11.1054 7.48045 11.2929 7.29292C11.4804 7.10538 11.7348 7.00002 12 7.00002C12.2652 7.00002 12.5196 7.10538 12.7071 7.29292C12.8946 7.48045 13 7.73481 13 8.00002Z" fill="white"/>
</svg>
